<?xml version="1.0" encoding="UTF-8"?>
<svg id="Layer_2" data-name="Layer 2" xmlns="http://www.w3.org/2000/svg" viewBox="0 0 91.66 42.98">
  <defs>
    <style>
      .cls-1 {
        fill: #e23423;
      }
    </style>
  </defs>
  <g id="LOGOS">
    <g>
      <path class="cls-1" d="M8.3,27.26h21.23c0-2.07-.29-4.02-.88-5.85-.59-1.82-1.45-3.42-2.6-4.79s-2.57-2.45-4.27-3.23-3.67-1.18-5.91-1.18c-2.56,0-4.82.37-6.79,1.1-1.97.73-3.63,1.78-4.97,3.15-1.35,1.37-2.37,3.05-3.07,5.03-.7,1.98-1.06,4.22-1.06,6.72,0,2.34.38,4.43,1.16,6.26.77,1.84,1.85,3.39,3.23,4.65,1.39,1.26,3.03,2.22,4.95,2.87,1.92.65,4.03.98,6.35.98,2.15,0,4.26-.25,6.33-.76,2.06-.51,3.98-1.38,5.77-2.63.16-.13.4-.28.72-.46.32-.17.48-.38.48-.62v-6.63c-.61,1.07-1.3,2.08-2.05,3.05-.76.97-1.6,1.84-2.53,2.59-.93.76-1.95,1.36-3.05,1.81-1.11.45-2.33.68-3.65.68-1.68,0-3.11-.35-4.29-1.04-1.19-.69-2.16-1.6-2.92-2.73-.76-1.13-1.31-2.4-1.68-3.81s-.54-2.83-.54-4.27c0-.16,0-.31.02-.46s.02-.3.02-.46ZM9.78,19.88c.61-1.52,1.63-2.83,3.07-3.95.45-.32.93-.6,1.44-.84s1.04-.36,1.6-.36c1.07,0,1.95.37,2.67,1.1.72.73,1.3,1.62,1.74,2.68.44,1.05.76,2.16.96,3.31.2,1.16.3,2.15.3,2.97h-13.05c.24-1.76.66-3.39,1.28-4.91Z"/>
      <rect class="cls-1" x="34.57" y="13.41" width="7.86" height="28.46"/>
      <path class="cls-1" d="M87.53,16.46c-1.34-1.37-3-2.42-4.97-3.15-1.97-.73-4.23-1.1-6.79-1.1-2.23,0-4.2.39-5.91,1.18s-3.13,1.86-4.27,3.23-2.01,2.97-2.6,4.79c-.58,1.82-.88,3.77-.88,5.85h21.23c0,.16,0,.31.02.46s.02.3.02.46c0,1.44-.18,2.86-.54,4.27s-.92,2.68-1.68,3.81-1.73,2.04-2.92,2.73c-1.18.69-2.61,1.04-4.29,1.04-1.33,0-2.55-.23-3.65-.68-1.1-.45-2.12-1.06-3.05-1.81-.93-.76-1.77-1.62-2.53-2.59s-1.44-1.99-2.05-3.05v6.63c0,.24.16.44.48.62.32.17.56.33.72.46,1.78,1.25,3.71,2.13,5.77,2.63,2.06.51,4.17.76,6.33.76,2.32,0,4.43-.33,6.35-.98,1.91-.65,3.56-1.61,4.95-2.87,1.38-1.26,2.46-2.81,3.23-4.65.77-1.84,1.16-3.92,1.16-6.26,0-2.5-.35-4.74-1.06-6.72-.7-1.98-1.73-3.66-3.07-5.03ZM70.12,24.78c0-.82.1-1.81.3-2.97.2-1.16.52-2.26.96-3.31s1.02-1.94,1.74-2.68c.72-.73,1.61-1.1,2.67-1.1.56,0,1.09.12,1.6.36s.98.52,1.44.84c1.44,1.12,2.46,2.43,3.07,3.95.61,1.52,1.04,3.15,1.28,4.91h-13.05Z"/>
      <rect class="cls-1" x="49.23" y="13.41" width="7.86" height="28.46"/>
      <path class="cls-1" d="M56.3,1.22c-.42-.39-.91-.68-1.46-.9-.54-.21-1.11-.32-1.69-.32s-1.15.11-1.68.32c-.53.21-1,.51-1.41.9-.09.09-.26.26-.26.26,0,0-1.95,2.06-3.93,2.06h-.06c-1.98,0-3.93-2.06-3.93-2.06,0,0-.16-.17-.26-.26-.41-.39-.88-.68-1.41-.9-.53-.21-1.09-.32-1.68-.32s-1.15.11-1.69.32c-.55.21-1.03.51-1.46.9s-.76.84-1,1.36-.36,1.09-.36,1.7.12,1.18.36,1.72.57.99,1,1.38.91.68,1.46.9c.54.21,1.11.32,1.69.32s1.15-.11,1.68-.34c.53-.23,1-.53,1.41-.92.09-.08.26-.26.26-.26,1.82-2.11,3.93-2.02,3.93-2.02h.06s2.14-.11,3.93,2.02c0,0,.17.18.26.26.41.39.88.69,1.41.92.53.23,1.09.34,1.68.34s1.15-.11,1.69-.32c.55-.21,1.03-.51,1.46-.9s.76-.84,1-1.38.36-1.1.36-1.72-.12-1.18-.36-1.7-.57-.97-1-1.36Z"/>
    </g>
  </g>
</svg>