<?xml version="1.0" encoding="UTF-8"?>
<svg id="Layer_2" data-name="Layer 2" xmlns="http://www.w3.org/2000/svg" viewBox="0 0 206.77 45.38">
  <defs>
    <style>
      .cls-1 {
        fill: #010506;
      }
    </style>
  </defs>
  <g id="LOGOS">
    <g>
      <path class="cls-1" d="M15.72,12.94c-.87,0-1.72.08-2.55.23-.83.15-1.62.41-2.36.76-.74.35-1.41.82-2,1.39-.59.58-1.08,1.27-1.47,2.09h-.17L0,12.51v31.69h8.3v-21.2c0-.7.13-1.44.4-2.21.27-.77.64-1.47,1.12-2.11.48-.63,1.05-1.16,1.71-1.58.66-.42,1.37-.63,2.13-.63s1.52.14,2.19.42c.68.28,1.3.65,1.88,1.1.57.45,1.12.95,1.64,1.52s1.01,1.12,1.45,1.69v-7.63c-.82-.25-1.65-.42-2.51-.51-.85-.08-1.72-.13-2.59-.13Z"/>
      <path class="cls-1" d="M49.58,17.45c-1.35-1.43-3.01-2.54-4.97-3.33-1.97-.79-4.23-1.18-6.78-1.18s-4.83.39-6.81,1.16c-1.98.77-3.65,1.88-4.99,3.31-1.35,1.43-2.38,3.16-3.08,5.18-.7,2.02-1.05,4.28-1.05,6.78s.37,4.61,1.1,6.57c.73,1.97,1.78,3.64,3.16,5.04,1.38,1.39,3.05,2.46,5.01,3.22,1.96.76,4.19,1.14,6.66,1.14s4.64-.39,6.59-1.16c1.95-.77,3.62-1.85,4.99-3.24,1.38-1.39,2.43-3.07,3.16-5.04.73-1.97,1.1-4.14,1.1-6.53s-.34-4.72-1.03-6.74c-.69-2.02-1.71-3.75-3.06-5.18ZM44.76,33.41c-.16,1.52-.49,2.96-.99,4.34-.51,1.38-1.23,2.54-2.17,3.48-.94.94-2.2,1.41-3.77,1.41-1.02,0-1.89-.22-2.64-.67-.74-.45-1.39-1.04-1.94-1.77-.54-.73-1-1.56-1.34-2.5-.35-.94-.63-1.9-.82-2.89-.2-.98-.33-1.94-.42-2.89-.09-.94-.13-1.79-.13-2.55s.04-1.58.13-2.55c.09-.97.23-1.96.44-2.99.21-1.02.5-2.03.86-3.01.36-.98.82-1.86,1.35-2.63s1.17-1.4,1.92-1.88c.74-.48,1.61-.72,2.59-.72,1.06,0,1.98.23,2.74.7.76.46,1.41,1.07,1.94,1.83.53.76.96,1.63,1.28,2.61.32.98.58,1.98.76,2.99.19,1.01.31,2.01.36,2.99.05.98.08,1.87.08,2.66,0,1.18-.08,2.53-.23,4.04Z"/>
      <path class="cls-1" d="M76.42,28.59c-1.15-.97-2.39-1.84-3.73-2.61s-2.58-1.52-3.73-2.25c-1.15-.73-2.11-1.49-2.88-2.28s-1.16-1.67-1.16-2.65c0-.53.11-1.01.34-1.41.22-.41.52-.75.88-1.03.37-.28.78-.5,1.24-.65s.93-.23,1.41-.23c.9,0,1.84.19,2.82.57.99.38,1.94.86,2.86,1.45.93.59,1.8,1.24,2.61,1.96.82.72,1.51,1.41,2.07,2.09l-.3-7c-1.43-.56-2.97-.97-4.61-1.24-1.64-.26-3.24-.4-4.79-.4-1.37,0-2.78.14-4.23.42-1.44.28-2.75.76-3.9,1.43-1.15.67-2.1,1.57-2.84,2.68-.74,1.11-1.12,2.49-1.12,4.15s.37,3.07,1.12,4.24c.74,1.17,1.68,2.2,2.8,3.1,1.12.9,2.33,1.71,3.62,2.42,1.29.72,2.5,1.43,3.62,2.15,1.12.72,2.06,1.49,2.8,2.32.74.83,1.12,1.82,1.12,2.97,0,1.29-.44,2.28-1.33,2.97-.89.69-1.94,1.03-3.18,1.03-1.07,0-2.13-.2-3.18-.61s-2.07-.93-3.06-1.58-1.9-1.36-2.74-2.15c-.84-.79-1.59-1.57-2.23-2.36l.3,6.83c.84.36,1.75.7,2.72,1.01.97.31,1.96.57,2.97.78,1.01.21,2.02.37,3.01.49,1,.11,1.94.17,2.85.17,1.4,0,2.82-.16,4.23-.48,1.42-.32,2.7-.84,3.84-1.54,1.13-.7,2.05-1.62,2.76-2.76.7-1.14,1.05-2.52,1.05-4.15,0-1.71-.39-3.2-1.16-4.47-.78-1.26-1.74-2.38-2.89-3.35Z"/>
      <path class="cls-1" d="M92.13,28.78h22.42c0-2.19-.31-4.25-.92-6.17-.62-1.92-1.53-3.61-2.74-5.06s-2.71-2.58-4.51-3.41c-1.8-.83-3.88-1.24-6.23-1.24-2.7,0-5.09.39-7.16,1.16-2.08.77-3.83,1.88-5.24,3.33-1.42,1.45-2.5,3.22-3.25,5.31-.74,2.09-1.12,4.46-1.12,7.1,0,2.47.41,4.68,1.22,6.61.82,1.94,1.95,3.58,3.41,4.91,1.46,1.33,3.2,2.35,5.22,3.03,2.03.69,4.26,1.03,6.7,1.03,2.27,0,4.5-.27,6.68-.8,2.17-.53,4.2-1.46,6.09-2.78.17-.14.42-.3.76-.48.34-.18.51-.4.51-.65v-7c-.64,1.12-1.37,2.2-2.17,3.22-.8,1.02-1.69,1.94-2.67,2.74-.99.8-2.06,1.44-3.22,1.92-1.17.48-2.45.72-3.86.72-1.77,0-3.28-.36-4.53-1.1-1.25-.73-2.28-1.69-3.08-2.89-.8-1.19-1.39-2.53-1.77-4.02s-.57-2.99-.57-4.51c0-.17,0-.33.02-.48s.02-.32.02-.49ZM93.69,20.99c.64-1.6,1.73-2.99,3.24-4.17.48-.34.98-.63,1.52-.89s1.1-.38,1.69-.38c1.12,0,2.06.39,2.82,1.16.76.77,1.37,1.71,1.84,2.82s.8,2.28,1.01,3.5c.21,1.22.31,2.27.31,3.14h-13.78c.25-1.85.7-3.58,1.35-5.18Z"/>
      <rect class="cls-1" x="119.86" y="14.16" width="8.3" height="30.04"/>
      <path class="cls-1" d="M204.54,38.43c-.84.79-1.76,1.5-2.74,2.15s-2,1.17-3.06,1.58-2.11.61-3.18.61c-1.24,0-2.3-.34-3.18-1.03-.88-.69-1.33-1.68-1.33-2.97,0-1.15.37-2.14,1.12-2.97.74-.83,1.68-1.6,2.8-2.32,1.12-.72,2.33-1.43,3.62-2.15,1.29-.72,2.5-1.52,3.62-2.42,1.12-.9,2.06-1.93,2.8-3.1.74-1.17,1.12-2.58,1.12-4.24s-.37-3.04-1.12-4.15c-.74-1.11-1.69-2-2.84-2.68-1.15-.67-2.45-1.15-3.9-1.43-1.45-.28-2.86-.42-4.23-.42-1.55,0-3.14.14-4.79.4-1.64.27-3.18.68-4.61,1.24l-.3,7c.56-.67,1.25-1.37,2.07-2.09.82-.72,1.68-1.37,2.61-1.96.92-.59,1.88-1.07,2.86-1.45.98-.38,1.92-.57,2.82-.57.48,0,.95.08,1.41.23s.88.37,1.24.65c.36.28.66.63.88,1.03.23.41.34.88.34,1.41,0,.98-.39,1.87-1.16,2.65s-1.74,1.55-2.88,2.28c-1.15.73-2.4,1.48-3.73,2.25s-2.57,1.64-3.73,2.61c-1.15.97-2.11,2.09-2.89,3.35-.77,1.27-1.16,2.76-1.16,4.47s.35,3.01,1.05,4.15c.71,1.14,1.63,2.06,2.76,2.76,1.14.7,2.42,1.21,3.84,1.54,1.42.32,2.83.48,4.23.48.9,0,1.85-.05,2.85-.17,1-.11,2-.27,3.01-.49,1.01-.21,2-.47,2.97-.78.97-.31,1.87-.65,2.72-1.01l.3-6.83c-.64.79-1.39,1.57-2.23,2.36Z"/>
      <path class="cls-1" d="M175.79,17.38c-1.42-1.45-3.17-2.56-5.24-3.33s-4.47-1.16-7.16-1.16c-2.36,0-4.44.41-6.23,1.24s-3.3,1.97-4.51,3.41c-1.21,1.45-2.12,3.13-2.74,5.06-.61,1.93-.92,3.98-.92,6.17h22.42c0,.17,0,.33.02.49s.02.31.02.48c0,1.52-.19,3.02-.57,4.51-.38,1.49-.97,2.83-1.77,4.02-.8,1.19-1.83,2.16-3.08,2.89-1.25.73-2.76,1.1-4.53,1.1-1.4,0-2.69-.24-3.86-.72-1.16-.48-2.24-1.12-3.22-1.92-.98-.8-1.87-1.71-2.67-2.74-.8-1.02-1.53-2.1-2.17-3.22v7c0,.25.17.47.51.65.33.18.59.34.76.48,1.88,1.32,3.91,2.25,6.09,2.78,2.18.53,4.4.8,6.68.8,2.45,0,4.68-.34,6.7-1.03,2.02-.69,3.76-1.7,5.22-3.03,1.46-1.33,2.6-2.97,3.41-4.91.82-1.94,1.22-4.14,1.22-6.61,0-2.64-.37-5.01-1.12-7.1-.74-2.09-1.83-3.86-3.25-5.31ZM157.4,26.17c0-.87.1-1.92.31-3.14.21-1.22.55-2.39,1.01-3.5.46-1.11,1.08-2.05,1.84-2.82.76-.77,1.7-1.16,2.82-1.16.59,0,1.15.13,1.69.38s1.04.55,1.52.89c1.52,1.18,2.6,2.57,3.24,4.17.65,1.6,1.1,3.33,1.35,5.18h-13.78Z"/>
      <rect class="cls-1" x="135.35" y="14.16" width="8.3" height="30.04"/>
      <path class="cls-1" d="M142.81,1.28c-.45-.41-.96-.72-1.54-.95-.57-.22-1.17-.34-1.79-.34s-1.21.11-1.77.34c-.56.23-1.06.54-1.49.95-.1.09-.27.27-.27.27,0,0-2.06,2.17-4.15,2.17h-.07c-2.09,0-4.15-2.17-4.15-2.17,0,0-.17-.18-.27-.27-.43-.41-.93-.72-1.49-.95-.56-.22-1.15-.34-1.77-.34s-1.22.11-1.79.34c-.58.23-1.09.54-1.54.95s-.8.88-1.05,1.43-.38,1.15-.38,1.79.13,1.25.38,1.81.61,1.05,1.05,1.45.96.72,1.54.95c.57.22,1.17.34,1.79.34s1.21-.12,1.77-.36c.56-.24,1.06-.56,1.49-.97.09-.09.27-.27.27-.27,1.92-2.23,4.15-2.13,4.15-2.13h.07s2.26-.12,4.15,2.13c0,0,.18.19.27.27.43.41.93.73,1.49.97.56.24,1.15.36,1.77.36s1.22-.11,1.79-.34c.58-.23,1.09-.54,1.54-.95s.8-.89,1.05-1.45.38-1.17.38-1.81-.13-1.24-.38-1.79-.61-1.02-1.05-1.43Z"/>
    </g>
  </g>
</svg>